<?xml version="1.0" encoding="UTF-8"?>
<!DOCTYPE svg PUBLIC "-//W3C//DTD SVG 1.0//EN" "http://www.w3.org/TR/2001/REC-SVG-20010904/DTD/svg10.dtd">
<!-- Creator: CorelDRAW 2021 (64-Bit) -->
<svg xmlns="http://www.w3.org/2000/svg" xml:space="preserve" width="3in" height="1.4in" version="1.0" style="shape-rendering:geometricPrecision; text-rendering:geometricPrecision; image-rendering:optimizeQuality; fill-rule:evenodd; clip-rule:evenodd"
viewBox="0 0 3000 1400"
 xmlns:xlink="http://www.w3.org/1999/xlink"
 xmlns:xodm="http://www.corel.com/coreldraw/odm/2003">
 <defs>
  <style type="text/css">
   <![CDATA[
    .fil5 {fill:#019A01;fill-rule:nonzero}
    .fil2 {fill:#2A9600;fill-rule:nonzero}
    .fil1 {fill:#48A424;fill-rule:nonzero}
    .fil3 {fill:#828282;fill-rule:nonzero}
    .fil4 {fill:#828D7E;fill-rule:nonzero}
    .fil8 {fill:#CD0001;fill-rule:nonzero}
    .fil7 {fill:#F80000;fill-rule:nonzero}
    .fil6 {fill:#FCFCFC;fill-rule:nonzero}
    .fil0 {fill:white;fill-rule:nonzero}
   ]]>
  </style>
 </defs>
 <g id="Layer_x0020_1">
  <metadata id="CorelCorpID_0Corel-Layer"/>
  <g id="__x0023_ffffffff">
   <path class="fil0" d="M2469.16 149.91c22.52,-3.42 46.49,13.3 49.91,36.09 4.55,25.32 -16.5,53.11 -42.83,52.66 -20.41,-1.57 -41.01,-16.67 -44.5,-37.57 -2.8,-23.13 14.53,-46.79 37.42,-51.19z"/>
   <path class="fil0" d="M2712.98 155.71c23.46,-6.34 50.18,11.31 53.62,35.43 4.35,25.1 -16.2,52.39 -42.24,52.46 -20.75,-1.28 -41.77,-16.62 -45.19,-37.86 -2.46,-21.78 12.86,-43.89 33.81,-50.03z"/>
   <path class="fil0" d="M2066.31 160.75c31.03,-9.96 67.56,10.97 74.89,42.63 9.1,34.98 -19.32,75.23 -56.03,75.65 -28.35,-1.37 -57.21,-22.18 -62.06,-51.09 -3.37,-28.69 16.11,-57.9 43.2,-67.19z"/>
   <path class="fil0" d="M1267.56 163.35c50.6,-7.92 104.47,28.59 113.12,79.61 7.03,34.84 -6.83,72.33 -32.82,96.16 -18.93,17.92 -45.43,29.18 -71.76,25.27 -28.2,-4.33 -54.39,-19.79 -72.85,-41.38 -15.66,-18.49 -24.24,-43.71 -19.84,-67.85 6.05,-43.64 40.4,-83.22 84.16,-91.81z"/>
   <path class="fil0" d="M608.14 167.02c39.36,-9.89 83.74,18.41 91.56,58.27 8.04,36.76 -14.19,76.96 -49.12,90.53 -16.08,6.93 -34.64,5.26 -50.43,-1.62 -24.83,-10.28 -47.33,-31.55 -51.63,-59.01 -4.87,-38.48 22.43,-77.91 59.62,-88.17z"/>
   <path class="fil0" d="M1793.53 178.06c30.22,-6.22 63.48,16.1 67.15,47.13 4.82,31.64 -20.78,65.5 -53.4,66.38 -25.87,-0.69 -51.88,-18.61 -58.96,-43.98 -6.57,-30.12 15.41,-62.79 45.21,-69.53z"/>
   <path class="fil0" d="M2425.22 249.41c32.16,-10.79 67.07,-8.85 99.65,-0.96 19.13,5.14 31.59,24.26 33.93,43.2 4.99,38.55 9.39,77.2 13.62,115.85 0.83,6.74 -0.2,14.95 -6.37,18.95 -5.88,3.47 -14.73,4.89 -19.84,-0.59 -7.92,-8.09 -7.47,-20.21 -9.15,-30.61 -2.98,-19.69 -4.5,-39.59 -8.24,-59.13 0.54,91.07 1.06,182.13 0.98,273.2 0.15,15.51 -18.46,23.5 -31.67,19.28 -10.72,-2.88 -18.09,-13.55 -17.94,-24.49 -0.76,-55.66 0.17,-111.37 -0.13,-167.04 0.94,-6.02 -9.07,-6.02 -8.04,0.02 -0.76,56.35 0.25,112.75 -1.57,169.08 1.37,19.72 -27.56,31.12 -40.72,17.19 -4.4,-4.45 -7.89,-10.23 -7.99,-16.62 0.96,-78.6 2.02,-157.25 2.39,-235.9 -0.02,-10.92 0.27,-21.88 -0.91,-32.78 -3.91,26.6 -7.15,53.35 -12.78,79.66 -1.3,13.08 -21.46,14.31 -27.39,4.08 -4.99,-7.92 -3.71,-17.63 -2.61,-26.43 4.5,-35.38 8.09,-70.91 13.03,-106.24 2.09,-17.58 14.24,-34.79 31.74,-39.73z"/>
   <path class="fil0" d="M2672.33 254.45c24.44,-8.02 50.89,-9.67 76.27,-5.48 12.71,2.11 26.57,2.93 37.27,10.94 11.6,8.93 18.93,22.89 20.53,37.39 4.92,38.26 9.32,76.61 13.47,114.96 0.3,4.4 0.52,9.1 -1.4,13.2 -3.13,7.52 -12.64,10.06 -19.96,8.41 -7.4,-3.02 -10.74,-11.26 -11.87,-18.63 -3.59,-24.78 -6.54,-49.69 -9.71,-74.52 -0.83,91.14 0.83,182.3 0.44,273.44 0.12,15.27 -17.85,23.36 -30.98,19.52 -11.07,-2.58 -18.83,-13.38 -18.69,-24.56 -0.81,-55.79 0.27,-111.62 -0.2,-167.41 0.54,-4.67 -4.48,-3.86 -7.4,-4.23 -2.21,57.95 -0.05,116.05 -2.21,174 1.23,20.7 -30.61,31.37 -42.56,14.75 -8.78,-9.32 -5.61,-22.84 -5.8,-34.37 0.76,-83.03 2.33,-166.06 2.11,-249.08 -5.65,26.31 -7.65,53.28 -13.62,79.51 -1.06,13.03 -20.78,14.78 -27.12,4.94 -5.41,-8.01 -4.03,-18.17 -2.93,-27.17 4.48,-35.21 8.02,-70.54 12.98,-105.7 1.99,-17.58 13.96,-34.81 31.37,-39.93z"/>
   <path class="fil0" d="M2043.45 286.51c35.06,-6.32 71,-2.31 105.45,5.53 26.48,6.54 44.01,32.77 47.23,58.81 6.17,48.36 12.1,96.77 17.09,145.28 0.81,8.58 2.06,17.33 0.61,25.94 -2.56,15.61 -26.63,22 -36.36,9.39 -8.31,-9.81 -8.53,-23.23 -10.33,-35.3 -3.98,-27.96 -6.79,-56.06 -11.33,-83.91 -0.2,74.52 -0.22,149.07 0.93,223.56 -21.83,7.57 -45.19,4.75 -67.83,5.26 -0.2,-31.03 0.56,-62.08 0.05,-93.11 0.81,-5.36 -6.52,-7.7 -10.01,-4.23 -1.99,10.2 -0.74,20.68 -0.98,31 -0.22,22.1 -0.71,44.21 -0.59,66.33 -22.13,-0.02 -44.26,0.07 -66.38,-0.05 1.35,-76.36 2.11,-152.75 1.84,-229.11 -6.98,35.55 -10.4,71.72 -17.9,107.17 -1.33,4.67 -1.94,10.23 -6.05,13.4 -10.4,7.74 -28.18,5.02 -33.49,-7.59 -5.33,-12.98 -2.19,-27.39 -1.08,-40.89 5.75,-45.53 10.37,-91.24 16.84,-136.67 1.92,-18.37 12.54,-35.16 27.04,-46.22 13.67,-8.31 29.65,-11.83 45.24,-14.58z"/>
   <path class="fil0" d="M1737.62 305.98c42.19,-14.58 88.31,-12.07 131.09,-1.55 24.02,6.69 39.78,30.54 43.05,54.31 4.55,34.15 8.56,68.35 12.49,102.55 1.65,19.74 5.73,39.43 4.67,59.28 -0.83,13.45 -17.43,19.72 -28.69,15.39 -10.7,-5.87 -13.45,-19 -14.8,-30.12 -3.54,-28.91 -8.24,-57.73 -10.69,-86.76 -1.23,9.98 -1.7,20.04 -1.45,30.09 0.54,63.97 1.08,127.92 1.06,191.87 -21.44,0.05 -42.85,0 -64.27,0.02 0.1,-27.86 -0.1,-55.74 0.27,-83.59 0.07,-5.75 -0.76,-11.46 -1.77,-17.09 -3.84,0.86 -9.64,1.6 -8.93,7.06 -0.52,31.18 -0.27,62.4 -0.44,93.6 -21.02,-0.47 -42.46,1.96 -62.99,-3.74 0.25,-73.44 2.39,-146.87 1.2,-220.31 -5.83,33.71 -9.71,67.71 -16.5,101.25 -1.4,5.21 -2.11,11.7 -7.3,14.68 -9.1,5.38 -22.84,4.08 -28.96,-5.19 -4.99,-7.92 -4.5,-17.78 -4.01,-26.78 5.14,-47.4 10.72,-94.8 17.04,-142.06 2.11,-22.99 17.24,-45.98 39.93,-52.91z"/>
   <path class="fil0" d="M535.17 339.69c28.62,-10.25 59.23,-13.47 89.44,-14.09 25.2,0.54 50.18,4.5 74.94,9.05 16.5,2.88 32.6,10.13 44.13,22.55 13.89,15.19 23.53,34.57 25.74,55.15 8.83,68 16.74,136.11 23.85,204.29 0.93,8.31 -1.18,16.47 -3.69,24.31 -15.69,0.2 -31.35,0.15 -47.03,0.05 -9.12,-17.41 -8.95,-37.39 -11.93,-56.33 -4.38,-30.04 -7.23,-60.28 -12.32,-90.2 -1.7,48.78 -0.44,97.7 0.32,146.51 -61.27,0.22 -122.54,0.05 -183.8,0.1 0.44,-49.61 0.93,-99.25 0.22,-148.87 -9.86,49.35 -13.59,99.85 -25.79,148.77 -14.95,0.2 -29.92,0.07 -44.87,0.07 -5.48,-10.55 -7.79,-22.47 -6.39,-34.3 2.63,-25.47 5.68,-50.92 8.9,-76.31 5.68,-44.7 9.49,-89.69 17.16,-134.09 7.23,-25.01 25.4,-48.95 51.11,-56.65z"/>
   <path class="fil0" d="M1168.97 389.3c28.17,-9.59 57.87,-14.13 87.52,-16.05 33.76,-3.57 67.56,1.65 100.93,6.61 19.8,3.46 40.4,5.97 58.15,16.18 22.17,12.61 37.79,34.3 47.72,57.38 7.33,16.55 8.19,34.81 10.69,52.47 5.44,44.25 11.29,88.46 15.69,132.84 -25.96,4.3 -52.39,1.67 -78.56,2.19 -1.13,-17.63 -4.35,-35.01 -6.32,-52.56 -2.61,17.48 -0.69,35.16 -1.2,52.74 -79.14,-0.05 -158.31,-0.02 -237.45,-0.02 -0.46,-16.79 1.18,-33.69 -1.01,-50.4 -3.61,16.65 -5.53,33.58 -8.38,50.38 -26.36,-1.18 -53.52,3.3 -79.22,-4.33 4.43,-44.57 9.98,-89.1 15.54,-133.55 3.12,-18.49 3.49,-37.89 11.68,-55.1 6.83,-14.63 16.87,-27.56 28.15,-39.02 9.71,-10.11 23.16,-15.09 36.07,-19.74z"/>
   <path class="fil0" d="M617.95 813.85c24.22,-6.49 51.58,11.63 55.91,36.21 4.89,25.03 -13.52,52.74 -39.14,56.16 -22.1,1.82 -44.85,-13.43 -51.48,-34.62 -6.12,-24.31 10.99,-50.97 34.72,-57.75z"/>
   <path class="fil0" d="M1276.66 840.72c32.94,-4.45 67.34,18.61 74.74,51.21 8.44,34.62 -14.11,73.17 -48.14,83.32 -17.58,5.39 -36.58,0.03 -51.78,-9.34 -16.15,-9.91 -29.92,-25.59 -33.24,-44.7 -5.48,-36.39 22.03,-74.59 58.42,-80.5z"/>
   <path class="fil0" d="M1837.37 848.08c30.17,-7.13 63.85,13.18 71.01,43.44 9.12,34.62 -18.24,74.4 -54.48,75.92 -25.2,-0.39 -50.01,-16.42 -60.29,-39.51 -12.81,-32.5 10.99,-71.42 43.76,-79.85z"/>
   <path class="fil0" d="M2150.06 849.11c30.61,-5.46 63.53,16.5 68.84,47.4 6.69,33.88 -20.28,71.1 -55.32,72.6 -25.03,-0.47 -49.61,-16.32 -60.02,-39.17 -13.52,-33.44 12.02,-74.13 46.5,-80.84z"/>
   <path class="fil0" d="M574.63 918.2c33.56,-11.61 70.22,-9.66 104.37,-1.62 20.04,4.84 33.58,24.41 36.44,44.06 5.21,38.57 9.39,77.27 13.74,115.94 0.74,7.3 2.46,15.17 -0.78,22.1 -3.27,7.43 -12.66,10.08 -20.06,8.76 -8.06,-2.61 -11.8,-11.48 -13.13,-19.18 -3.74,-25.55 -6.52,-51.24 -10.3,-76.76 -0.91,95.37 0.96,190.79 0.46,286.18 -0.46,19.25 -26.33,26.75 -40.52,16.72 -8.83,-5.58 -12.22,-16.47 -11.83,-26.43 -0.49,-57.51 0.32,-115.02 0,-172.47 0.74,-4.4 -4.18,-5.21 -7.2,-3.91 -2.39,5.97 -1.23,12.59 -1.48,18.88 -0.07,51.61 -0.27,103.21 -0.96,154.84 -0.67,8.24 0.52,18.27 -6.05,24.54 -6.96,6.24 -16.7,10.13 -26.11,8.6 -11.21,-2.83 -19.89,-14.23 -19.45,-25.81 1.03,-94.36 2.63,-188.7 2.63,-283.06 -5.83,28.57 -8.14,57.78 -14.6,86.25 -1.7,13.01 -21.49,14.46 -28.13,4.67 -5.83,-8.56 -4.52,-19.47 -3.22,-29.16 4.65,-36.93 8.46,-73.98 13.54,-110.86 1.97,-18.46 14.39,-36.76 32.63,-42.29z"/>
   <path class="fil0" d="M1782.05 981.87c33.34,-10.74 69.33,-12.66 103.83,-7.01 18.12,2.88 38.01,4.5 52.56,16.96 13.74,11.98 22.79,29.28 24.93,47.4 6.1,47.55 11.85,95.15 16.89,142.82 0.86,9 2.12,18.09 1.04,27.14 -1.52,16.57 -27.09,23.85 -36.88,10.23 -6.96,-8.36 -7.99,-19.62 -9.41,-29.97 -3.79,-29.06 -7.52,-58.15 -11.31,-87.19 -0.98,15.88 -0.56,31.81 -0.54,47.75 0.22,60.36 0.44,120.72 0.64,181.1 -22.59,-0.02 -45.17,0 -67.73,-0.02 -0.25,-31.67 0.61,-63.36 -0.07,-95 0.71,-3.54 -3.44,-7.35 -6.69,-5.14 -5.11,0.59 -3.81,6.15 -4.23,9.78 -0.05,30.12 -0.12,60.26 -0.24,90.38 -22.11,0 -44.23,-0.02 -66.33,0 0.07,-77 3.02,-154.03 0.64,-230.98 -5.28,37.13 -9.98,74.47 -17.9,111.15 -2.53,17.16 -29.21,18.27 -37.13,4.67 -6.76,-11.85 -4.11,-26.11 -2.97,-38.99 5.68,-46.71 10.65,-93.52 17.11,-140.11 2.58,-24.44 19.52,-48.36 43.81,-54.98z"/>
   <path class="fil0" d="M2089.47 984.36c43.13,-15.17 90.08,-12.59 134.12,-3 -0.02,84.06 0.07,168.15 -0.02,252.23 -0.1,37.47 -23.8,73.02 -57.73,88.58 0.05,-25.44 0.07,-50.89 0.3,-76.31 -0.15,-3.96 0,-7.99 -1.11,-11.8 -3.76,-4.52 -11.06,-0.91 -10.03,4.82 -0.39,29.18 -0.22,58.39 -0.32,87.6 -21.46,6.96 -44.26,4.03 -66.39,4.62 0.22,-76.22 2.66,-152.48 0.89,-228.72 -5.48,34.79 -9.93,69.78 -16.67,104.34 -1.55,5.78 -1.99,13.03 -7.57,16.55 -9.61,5.98 -24.34,4.6 -30.81,-5.33 -5.8,-9.12 -4.87,-20.56 -4.08,-30.83 3.57,-34.62 8.29,-69.11 12.17,-103.68 2.36,-19.08 4.08,-38.31 8.19,-57.09 6.05,-18.59 19.74,-36.22 39.07,-41.97z"/>
   <path class="fil0" d="M1197.83 998.03c28.5,-12.24 59.96,-15.51 90.72,-15.81 23.6,1.25 47.15,4.47 70.24,9.64 21.17,4.72 37.76,21.24 46.74,40.44 7.47,14.16 8.19,30.46 10.25,46 3.89,30.02 7.15,60.11 11.04,90.13 -17.65,1.38 -35.38,0.84 -53.06,1.57 -2.7,-14.7 -3.56,-29.65 -5.48,-44.45 -0.76,14.83 -0.71,29.65 -0.61,44.5 -20.28,0.42 -40.57,0.91 -60.88,1.16 -33.95,37.91 -67.24,76.41 -101.2,114.32 0.67,-51.85 0.94,-103.73 0.69,-155.58 -8.87,41.4 -11.8,83.96 -21.54,125.24 -2.46,14.83 -21.86,17.9 -33.36,12.07 -12.81,-6.79 -14.43,-23.46 -13.28,-36.34 5.17,-50.01 11.68,-99.85 17.46,-149.78 3.25,-18.71 2.76,-39.12 13.6,-55.52 7.33,-11.09 15.98,-22.45 28.67,-27.61z"/>
   <path class="fil0" d="M2479.11 1148.35c26.92,-4.3 55.71,15.96 59.47,43.32 4.89,29.65 -19.42,61.73 -50.15,61.76 -23.28,-1.5 -46.4,-17.61 -52.69,-40.57 -6.15,-28.47 15.22,-58.76 43.37,-64.52z"/>
   <path class="fil0" d="M2722.81 1151.03c27.12,-7.4 58.24,12.91 63.01,40.61 5.17,26.56 -12.83,55.1 -38.89,62.11 -23.5,5.33 -48.51,-9.1 -59.92,-29.48 -14.68,-28.44 6.25,-65.25 35.8,-73.24z"/>
   <path class="fil0" d="M2422.37 1267.96c30.48,-11.38 64.12,-13.22 96.11,-8.04 17.04,2.56 36.11,4.45 48.63,17.78 14.43,13.89 19.08,34.13 20.41,53.43 -55.22,-0.02 -110.44,0.03 -165.66,-0.02 -11.56,0 -22.94,-2.43 -33.83,-6.1 0.88,-22.96 11.72,-48.16 34.35,-57.04z"/>
   <path class="fil0" d="M2671.28 1269.04c39.53,-14.33 83.22,-12.15 123.44,-1.82 22,6.69 34.94,28.86 38.87,50.38 -16.74,9.52 -35.99,14.28 -55.24,13.55 -47.8,-0.07 -95.61,-0.03 -143.41,-0.03 1.96,-12.09 2.19,-24.95 8.19,-35.92 6.34,-11.33 15.39,-22.08 28.15,-26.16z"/>
  </g>
  <g id="__x0023_48a424ff">
   <g>
    <path class="fil1" d="M131.66 30.61c8.5,-1.74 17.19,-2.51 25.86,-2.56 879.35,0 1758.69,0 2638.04,0 12.42,0.05 24.91,-0.49 37.25,1.5 31.89,4.82 61.44,23.01 80.3,49.17 15.39,21 23.7,46.98 23.5,72.99 -0.05,138.5 0.02,276.99 -0.05,415.48 0.15,49.54 -33.22,96.72 -79.71,113.56 -21.78,8.85 -45.63,8.04 -68.67,7.82 -876.84,0 -1753.65,0 -2630.49,0 -27.34,0.27 -54.68,-8.87 -76.24,-25.76 -24.52,-18.83 -41.43,-47.26 -46.15,-77.81 -1.62,-9.89 -1.57,-19.92 -1.52,-29.9 0.1,-136.06 -0.12,-272.12 0.12,-408.2 0.74,-55.19 43.59,-105.94 97.76,-116.29l0 0zm2.61 12.02c-48.58,9.34 -87.21,54.7 -88.04,104.3 -0.3,139.28 -0.05,278.56 -0.12,417.84 -0.35,28.18 10.67,56.23 30.09,76.63 20.73,22.28 50.97,35.31 81.41,34.91 885.91,-0.05 1771.82,0.05 2657.73,-0.05 45.41,0.02 88.36,-31.3 102.82,-74.23 4.87,-13.5 6.44,-27.91 6.17,-42.17 -0.1,-136.87 0.07,-273.72 -0.07,-410.59 0.02,-44.62 -30.24,-86.98 -72.13,-102.06 -18.69,-7.45 -39.04,-7.2 -58.81,-6.89 -878.61,-0.02 -1757.19,0 -2635.8,-0.02 -7.8,0.05 -15.59,0.74 -23.23,2.31z"/>
   </g>
  </g>
  <g id="__x0023_2a9600ff">
   <g>
    <path class="fil2" d="M425.56 70.98c9.81,-1.55 19.74,-1.11 29.63,-1.15 108.94,0.02 217.88,0 326.8,0.02 16.4,0.17 33.11,-1.18 49.1,3.3 38.13,9.46 69.8,40.61 79.9,78.57 5.11,16.82 3.61,34.52 3.81,51.83 0,113.86 0.03,227.69 -0.02,341.52 -0.37,43.35 -29.26,84.38 -69.43,100.26 -13.08,5.29 -27.19,8.21 -41.33,8.04 -121.21,-0.05 -242.39,-0.03 -363.58,-0.03 -33.09,-0.12 -65.35,-16.64 -85.59,-42.68 -15.12,-19.22 -23.77,-43.57 -23.57,-68.05 0.07,-122.1 -0.07,-244.17 0.07,-366.24 1.03,-51.7 43.12,-98.34 94.21,-105.4l0 0zm-50.48 37.89c-19.87,18.41 -31.59,45.21 -31.5,72.33 0,120.57 -0.02,241.11 0.03,361.69 -0.25,41.18 28.32,80.25 67.41,92.96 17.09,6.24 35.48,5.26 53.35,5.19 14.95,0 29.92,0.12 44.87,-0.07 8.53,0.12 17.04,0.12 25.57,0.1 61.27,-0.05 122.54,0.12 183.8,-0.1 7.97,0.12 15.93,0.12 23.93,0.02 15.69,0.1 31.35,0.15 47.03,-0.05 14.87,0.52 30.07,0.17 44.3,-4.7 31.67,-10.03 57.17,-37.03 65.37,-69.21 3.76,-13.45 3.3,-27.51 3.25,-41.33 -0.03,-114.79 0.02,-229.58 -0.03,-344.38 0.1,-24.09 -9.05,-48.04 -25.15,-65.96 -18.29,-20.75 -45.61,-33.19 -73.31,-33.19 -120.4,-0.05 -240.82,-0.03 -361.22,-0.03 -24.91,-0.12 -49.59,9.67 -67.71,26.73z"/>
   </g>
   <g>
    <path class="fil2" d="M1083.24 72.26c8.38,-1.8 16.99,-2.51 25.59,-2.46 121.38,0.15 242.76,-0.13 364.14,0.15 48.88,1.28 93.67,38.72 103.83,86.5 2.85,11.33 3,23.04 2.8,34.64 -0.02,112.31 -0.02,224.59 -0.02,336.88 -0.07,11.38 0.59,22.91 -1.8,34.12 -5.68,31.65 -25.84,60.29 -53.74,76.27 -17.6,10.43 -38.18,15.12 -58.54,15 -120.42,-0.05 -240.85,0.07 -361.27,-0.05 -41.48,-0.3 -81.13,-26.28 -98.49,-63.85 -7.28,-15.32 -10.8,-32.31 -10.65,-49.22 0,-116.37 0.05,-232.73 0,-349.07 -0.39,-15.61 0.79,-31.49 6.12,-46.3 12.22,-36.29 44.5,-64.83 82.02,-72.6l0 0zm-73.61 88.09c-3.12,14.21 -2.07,28.81 -2.21,43.25 0.05,113.83 -0.13,227.67 0.1,341.5 0.61,41.38 30.36,79.98 70.02,91.61 25.69,7.62 52.86,3.15 79.22,4.33 2.36,0.02 7.03,0.02 9.39,0.02 79.15,0 158.31,-0.02 237.45,0.02 1.89,-0.05 5.63,-0.12 7.52,-0.17 26.16,-0.52 52.59,2.11 78.56,-2.19 31.89,-7.74 59.45,-31.59 70.56,-62.62 6.37,-16.08 6.39,-33.56 6.1,-50.55 -0.02,-114.77 0.02,-229.54 -0.02,-344.3 0.12,-26.41 -10.96,-52.54 -29.92,-70.91 -18.59,-18.31 -44.63,-28.64 -70.74,-28.22 -120.5,0.1 -241.02,-0.07 -361.54,0.1 -44.57,0.22 -85.71,34.52 -94.48,78.13z"/>
   </g>
   <g>
    <path class="fil2" d="M1704.97 85.67c17.21,-10.92 37.89,-15.86 58.17,-15.83 120.47,0.02 240.92,0.02 361.37,0 30.93,-0.15 61.54,13.43 82.26,36.36 18.61,20.23 29.19,47.55 29.11,75.04 -0.05,121.28 0.13,242.57 -0.07,363.83 -0.54,46.79 -34.13,90.52 -78.97,103.53 -14.43,4.62 -29.72,5.04 -44.72,4.8 -112.33,-0.03 -224.67,-0.03 -337,0 -17.93,0.29 -36.41,-0.84 -53.23,-7.55 -25.32,-11.78 -47.57,-31.3 -59.15,-57.06 -7.89,-16.62 -10.84,-35.16 -10.37,-53.43 0.07,-118.04 -0.05,-236.07 0.05,-354.11 -0.07,-30.17 12.71,-60.19 34.84,-80.72 5.7,-5.19 11.7,-10.03 17.73,-14.85l0 0zm-35.11 64.02c-6,16.43 -5.31,34.1 -5.19,51.29 -0.03,112.33 0.05,224.67 -0.03,336.98 -2.33,44.48 28.84,87.3 71.57,99.35 20.53,5.7 41.97,3.27 62.99,3.74 3.59,0 7.2,0 10.87,0.02 21.41,-0.02 42.83,0.02 64.27,-0.02 45.53,0 91.09,0.1 136.65,-0.03 22.13,0.13 44.25,0.03 66.38,0.05 3.81,0 7.67,0 11.53,0 22.64,-0.52 46,2.31 67.83,-5.26 37.98,-12.98 66.16,-50.4 66.75,-90.74 0.22,-113.07 0.05,-226.15 0.1,-339.22 -0.15,-18.09 1.35,-36.73 -4.55,-54.19 -9.69,-31.62 -36.29,-57.36 -68.25,-65.94 -14.09,-4.15 -28.91,-3.66 -43.42,-3.57 -114.76,0.03 -229.54,-0.02 -344.3,0.03 -41.3,-0.35 -80.54,28.27 -93.2,67.51z"/>
   </g>
   <g>
    <path class="fil2" d="M2404.99 70.96c10.47,-1.55 21.12,-1.08 31.69,-1.11 115.56,0 231.13,-0.02 346.69,0 36.17,-0.1 71.67,18.93 91.68,49.07 13.18,18.88 19.15,41.99 19.4,64.86 0.05,107.32 0,214.63 0.02,321.95 -0.34,23.7 1.92,48.14 -5.9,70.98 -10.5,32.53 -36.93,59.4 -69.28,70.46 -16.2,6.05 -33.69,6.59 -50.75,6.17 -114.69,0 -229.36,-0.05 -344.03,0.03 -14.48,0.29 -29.01,-1.94 -42.54,-7.11 -42.33,-15.32 -72.6,-58.34 -72.28,-103.41 -0.07,-120.57 -0.02,-241.14 -0.02,-361.71 -0.07,-26.43 9.69,-52.74 27.09,-72.68 17.26,-20.14 41.94,-33.73 68.23,-37.52l0 0zm0.05 12.49c-35.5,5.48 -66.58,31.96 -77.84,66.02 -6.05,16.5 -5.41,34.27 -5.26,51.53 0,107.39 0,214.78 0,322.18 0.07,13.2 -0.74,26.6 2.24,39.58 6.74,32.6 31.2,60.7 62.45,72.11 15.09,6 31.54,6.59 47.62,6.22 116.37,-0.1 232.73,0.05 349.1,-0.07 38.99,-0.07 76.12,-25.81 90.3,-62.03 6.89,-16.06 7.72,-33.73 7.25,-50.94 -0.07,-115.6 0,-231.2 -0.05,-346.81 0,-17.92 -4.94,-35.85 -14.28,-51.16 -17.14,-28.77 -49.62,-47.65 -83.15,-47.87 -114.77,-0.12 -229.54,-0.02 -344.3,-0.05 -11.36,0.03 -22.81,-0.52 -34.07,1.3z"/>
   </g>
  </g>
  <g id="__x0023_828282ff">
   <g>
    <path class="fil3" d="M375.09 108.87c18.12,-17.06 42.8,-26.85 67.71,-26.73 120.4,0 240.82,-0.02 361.22,0.03 27.71,0 55.02,12.44 73.31,33.19 16.1,17.93 25.25,41.87 25.15,65.96 0.05,114.8 0,229.59 0.03,344.38 0.05,13.82 0.52,27.88 -3.25,41.33 -8.21,32.18 -33.7,59.18 -65.37,69.21 -14.23,4.87 -29.43,5.21 -44.3,4.7 2.51,-7.84 4.62,-16.01 3.69,-24.31 -7.11,-68.18 -15.02,-136.28 -23.85,-204.29 -2.21,-20.58 -11.85,-39.95 -25.74,-55.15 -11.53,-12.42 -27.63,-19.67 -44.13,-22.55 -24.76,-4.55 -49.74,-8.5 -74.94,-9.05 -30.22,0.61 -60.83,3.83 -89.44,14.09 -25.72,7.7 -43.89,31.64 -51.11,56.65 -7.67,44.4 -11.48,89.39 -17.16,134.09 -3.22,25.4 -6.27,50.84 -8.9,76.31 -1.4,11.83 0.91,23.75 6.39,34.3 -17.87,0.07 -36.26,1.06 -53.35,-5.19 -39.09,-12.71 -67.66,-51.78 -67.41,-92.96 -0.05,-120.57 -0.03,-241.11 -0.03,-361.69 -0.1,-27.12 11.63,-53.92 31.5,-72.33l0 0zm233.05 58.15c-37.2,10.25 -64.49,49.69 -59.62,88.17 4.3,27.46 26.8,48.73 51.63,59.01 15.78,6.88 34.35,8.56 50.43,1.62 34.94,-13.57 57.16,-53.77 49.12,-90.53 -7.82,-39.85 -52.2,-68.15 -91.56,-58.27z"/>
   </g>
   <g>
    <path class="fil3" d="M1009.63 160.35c8.78,-43.61 49.91,-77.91 94.48,-78.13 120.52,-0.17 241.04,0 361.54,-0.1 26.11,-0.42 52.15,9.91 70.74,28.22 18.96,18.37 30.04,44.5 29.92,70.91 0.05,114.77 0,229.54 0.02,344.3 0.3,16.99 0.27,34.47 -6.1,50.55 -11.11,31.03 -38.67,54.88 -70.56,62.62 -4.4,-44.38 -10.25,-88.59 -15.69,-132.84 -2.51,-17.65 -3.37,-35.92 -10.69,-52.47 -9.93,-23.09 -25.55,-44.77 -47.72,-57.38 -17.75,-10.2 -38.35,-12.71 -58.15,-16.18 -33.36,-4.97 -67.17,-10.18 -100.93,-6.61 -29.65,1.92 -59.35,6.46 -87.52,16.05 -12.91,4.65 -26.36,9.64 -36.07,19.74 -11.28,11.46 -21.31,24.39 -28.15,39.02 -8.19,17.21 -8.56,36.61 -11.68,55.1 -5.56,44.45 -11.11,88.98 -15.54,133.55 -39.66,-11.63 -69.41,-50.23 -70.02,-91.61 -0.22,-113.83 -0.05,-227.67 -0.1,-341.5 0.15,-14.43 -0.91,-29.04 2.21,-43.25l0 0zm257.93 3c-43.76,8.58 -78.11,48.17 -84.16,91.81 -4.4,24.14 4.18,49.37 19.84,67.85 18.46,21.59 44.65,37.05 72.85,41.38 26.33,3.91 52.83,-7.35 71.76,-25.27 25.99,-23.83 39.85,-61.32 32.82,-96.16 -8.65,-51.02 -62.52,-87.53 -113.12,-79.61z"/>
   </g>
   <g>
    <path class="fil3" d="M1669.86 149.69c12.66,-39.24 51.9,-67.86 93.2,-67.51 114.77,-0.05 229.54,0 344.3,-0.03 14.51,-0.09 29.33,-0.59 43.42,3.57 31.96,8.58 58.56,34.32 68.25,65.94 5.9,17.46 4.4,36.09 4.55,54.19 -0.05,113.07 0.12,226.15 -0.1,339.22 -0.59,40.35 -28.77,77.76 -66.75,90.74 -1.15,-74.49 -1.13,-149.04 -0.93,-223.56 4.55,27.85 7.35,55.96 11.33,83.91 1.8,12.07 2.02,25.5 10.33,35.3 9.73,12.61 33.8,6.22 36.36,-9.39 1.45,-8.61 0.2,-17.36 -0.61,-25.94 -4.99,-48.51 -10.92,-96.92 -17.09,-145.28 -3.22,-26.04 -20.75,-52.27 -47.23,-58.81 -34.44,-7.84 -70.39,-11.85 -105.45,-5.53 -15.59,2.75 -31.57,6.27 -45.24,14.58 -14.5,11.06 -25.13,27.85 -27.04,46.22 -6.47,45.44 -11.09,91.14 -16.84,136.67 -1.11,13.5 -4.25,27.91 1.08,40.89 5.31,12.61 23.09,15.34 33.49,7.59 4.1,-3.17 4.72,-8.73 6.05,-13.4 7.5,-35.45 10.91,-71.62 17.9,-107.17 0.27,76.36 -0.49,152.75 -1.84,229.11 -45.56,0.13 -91.12,0.03 -136.65,0.03 0.02,-63.95 -0.52,-127.9 -1.06,-191.87 -0.24,-10.06 0.22,-20.11 1.45,-30.09 2.46,29.04 7.15,57.85 10.69,86.76 1.35,11.11 4.11,24.24 14.8,30.12 11.26,4.33 27.85,-1.94 28.69,-15.39 1.06,-19.84 -3.02,-39.54 -4.67,-59.28 -3.93,-34.2 -7.94,-68.4 -12.49,-102.55 -3.27,-23.78 -19.03,-47.62 -43.05,-54.31 -42.78,-10.52 -88.91,-13.03 -131.09,1.55 -22.69,6.93 -37.81,29.92 -39.93,52.91 -6.32,47.25 -11.9,94.65 -17.04,142.06 -0.49,9 -0.98,18.86 4.01,26.78 6.12,9.27 19.86,10.57 28.96,5.19 5.19,-2.98 5.9,-9.46 7.3,-14.68 6.78,-33.54 10.67,-67.54 16.5,-101.25 1.18,73.44 -0.96,146.88 -1.2,220.31 -42.73,-12.05 -73.91,-54.87 -71.57,-99.35 0.07,-112.31 0,-224.64 0.03,-336.98 -0.13,-17.19 -0.81,-34.86 5.19,-51.29l0 0zm396.45 11.06c-27.09,9.3 -46.57,38.5 -43.2,67.19 4.85,28.91 33.71,49.72 62.06,51.09 36.71,-0.42 65.13,-40.67 56.03,-75.65 -7.33,-31.67 -43.86,-52.59 -74.89,-42.63l0 0zm-272.78 17.31c-29.8,6.74 -51.78,39.41 -45.21,69.53 7.08,25.37 33.09,43.3 58.96,43.98 32.63,-0.89 58.22,-34.74 53.4,-66.38 -3.67,-31.03 -36.93,-53.35 -67.15,-47.13z"/>
   </g>
   <g>
    <path class="fil3" d="M2405.04 83.45c11.26,-1.82 22.72,-1.28 34.07,-1.3 114.77,0.03 229.54,-0.07 344.3,0.05 33.54,0.22 66.02,19.1 83.15,47.87 9.34,15.31 14.28,33.24 14.28,51.16 0.05,115.61 -0.02,231.21 0.05,346.81 0.47,17.21 -0.37,34.89 -7.25,50.94 -14.19,36.21 -51.31,61.96 -90.3,62.03 -116.37,0.13 -232.73,-0.02 -349.1,0.07 -16.08,0.37 -32.53,-0.22 -47.62,-6.22 -31.25,-11.41 -55.71,-39.51 -62.45,-72.11 -2.98,-12.98 -2.17,-26.38 -2.24,-39.58 0,-107.39 0,-214.78 0,-322.18 -0.15,-17.26 -0.78,-35.04 5.26,-51.53 11.26,-34.05 42.33,-60.53 77.84,-66.02l0 0zm64.12 66.46c-22.89,4.4 -40.22,28.06 -37.42,51.19 3.49,20.9 24.09,36 44.5,37.57 26.33,0.44 47.38,-27.34 42.83,-52.66 -3.42,-22.79 -27.39,-39.51 -49.91,-36.09l0 0zm243.82 5.8c-20.95,6.15 -36.26,28.25 -33.81,50.03 3.42,21.24 24.44,36.59 45.19,37.86 26.04,-0.07 46.59,-27.36 42.24,-52.46 -3.44,-24.12 -30.17,-41.77 -53.62,-35.43l0 0zm-287.76 93.7c-17.5,4.94 -29.65,22.15 -31.74,39.73 -4.94,35.33 -8.53,70.86 -13.03,106.24 -1.11,8.8 -2.39,18.51 2.61,26.43 5.93,10.23 26.09,9 27.39,-4.08 5.63,-26.31 8.87,-53.06 12.78,-79.66 1.18,10.89 0.89,21.86 0.91,32.78 -0.37,78.65 -1.43,157.3 -2.39,235.9 0.1,6.39 3.59,12.17 7.99,16.62 13.15,13.94 42.09,2.53 40.72,-17.19 1.82,-56.33 0.81,-112.73 1.57,-169.08 -1.03,-6.05 8.98,-6.05 8.04,-0.02 0.3,55.67 -0.64,111.38 0.13,167.04 -0.15,10.94 7.22,21.61 17.94,24.49 13.2,4.23 31.81,-3.76 31.67,-19.28 0.07,-91.07 -0.44,-182.13 -0.98,-273.2 3.74,19.54 5.26,39.44 8.24,59.13 1.67,10.4 1.23,22.52 9.15,30.61 5.11,5.48 13.96,4.06 19.84,0.59 6.17,-4 7.2,-12.22 6.37,-18.95 -4.23,-38.65 -8.63,-77.3 -13.62,-115.85 -2.33,-18.93 -14.8,-38.06 -33.93,-43.2 -32.57,-7.89 -67.49,-9.83 -99.65,0.96l0 0zm247.11 5.04c-17.41,5.11 -29.38,22.35 -31.37,39.93 -4.97,35.16 -8.51,70.49 -12.98,105.7 -1.11,9 -2.48,19.15 2.93,27.17 6.35,9.83 26.06,8.09 27.12,-4.94 5.97,-26.23 7.96,-53.2 13.62,-79.51 0.22,83.03 -1.35,166.06 -2.11,249.08 0.2,11.53 -2.97,25.05 5.8,34.37 11.95,16.62 43.79,5.95 42.56,-14.75 2.16,-57.95 0,-116.04 2.21,-174 2.93,0.37 7.94,-0.44 7.4,4.23 0.46,55.78 -0.61,111.62 0.2,167.41 -0.15,11.19 7.62,21.98 18.69,24.56 13.13,3.83 31.1,-4.26 30.98,-19.52 0.39,-91.14 -1.28,-182.31 -0.44,-273.44 3.17,24.83 6.12,49.74 9.71,74.52 1.13,7.37 4.47,15.61 11.87,18.63 7.33,1.65 16.84,-0.88 19.96,-8.41 1.92,-4.11 1.7,-8.8 1.4,-13.2 -4.15,-38.35 -8.56,-76.71 -13.47,-114.96 -1.6,-14.5 -8.93,-28.47 -20.53,-37.39 -10.7,-8.02 -24.56,-8.83 -37.27,-10.94 -25.37,-4.18 -51.83,-2.53 -76.27,5.48z"/>
   </g>
   <path class="fil3" d="M509.25 640.96c12.2,-48.93 15.93,-99.43 25.79,-148.77 0.71,49.62 0.22,99.26 -0.22,148.87 -8.53,0.02 -17.04,0.02 -25.57,-0.1z"/>
   <path class="fil3" d="M718.31 494.46c5.09,29.92 7.94,60.16 12.32,90.2 2.98,18.93 2.8,38.92 11.93,56.33 -7.99,0.1 -15.96,0.1 -23.93,-0.02 -0.76,-48.8 -2.02,-97.73 -0.32,-146.51z"/>
   <path class="fil3" d="M1799.65 547.44c-0.71,-5.46 5.09,-6.19 8.93,-7.06 1.01,5.63 1.84,11.33 1.77,17.09 -0.37,27.86 -0.17,55.74 -0.27,83.59 -3.67,-0.02 -7.28,-0.02 -10.87,-0.02 0.17,-31.2 -0.07,-62.43 0.44,-93.6z"/>
   <path class="fil3" d="M2078.95 543.72c3.49,-3.46 10.82,-1.13 10.01,4.23 0.52,31.03 -0.24,62.08 -0.05,93.11 -3.86,0 -7.72,0 -11.53,0 -0.12,-22.13 0.37,-44.23 0.59,-66.33 0.24,-10.33 -1.01,-20.8 0.98,-31z"/>
   <path class="fil3" d="M1403.59 641.09c0.52,-17.58 -1.4,-35.26 1.2,-52.74 1.97,17.56 5.19,34.94 6.32,52.56 -1.89,0.05 -5.63,0.13 -7.52,0.17z"/>
   <path class="fil3" d="M1165.13 590.66c2.19,16.72 0.54,33.61 1.01,50.4 -2.36,0 -7.03,0 -9.39,-0.02 2.85,-16.8 4.77,-33.73 8.38,-50.38z"/>
   <path class="fil3" d="M1649.14 869.83c0.02,-45.48 31.25,-90.16 75.16,-103.24 -27.44,11.43 -51.02,32.72 -62.69,60.31 -7.4,16.5 -9.79,34.74 -9.27,52.69 0.2,118.87 -0.17,237.74 0.2,356.59 0.81,46.89 34.98,89.47 79.48,102.99 -47.45,-10.7 -82.95,-57.26 -82.88,-105.6 -0.07,-121.26 -0.05,-242.52 0,-363.75z"/>
   <g>
    <path class="fil3" d="M433.68 772.55c122.66,-0.86 245.37,-0.12 368.05,-0.37 39,-0.76 76.76,23.97 91.83,59.89 5.87,13.37 8.41,28.08 8.16,42.66 -0.05,117.99 -0.02,235.98 0,353.94 0.25,15.19 -2.56,30.51 -8.95,44.35 -15.19,34.13 -50.99,57.85 -88.41,58.02 -121.41,0.12 -242.79,0.1 -364.19,0.02 -37.52,-0.15 -73.39,-23.97 -88.56,-58.2 -6,-13.1 -8.93,-27.54 -8.85,-41.94 -0.02,-116.27 0.05,-232.56 -0.02,-348.83 -0.52,-16.4 0.91,-33.14 7.45,-48.36 13.57,-33.83 47.08,-58.56 83.5,-61.2l0 0zm184.27 41.31c-23.72,6.78 -40.84,33.44 -34.72,57.75 6.64,21.19 29.38,36.44 51.48,34.62 25.62,-3.42 44.03,-31.13 39.14,-56.16 -4.33,-24.58 -31.69,-42.7 -55.91,-36.21l0 0zm-43.32 104.34c-18.24,5.53 -30.66,23.82 -32.63,42.29 -5.09,36.88 -8.9,73.93 -13.54,110.86 -1.3,9.69 -2.61,20.6 3.22,29.16 6.64,9.78 26.43,8.33 28.13,-4.67 6.46,-28.47 8.78,-57.68 14.6,-86.25 0,94.36 -1.6,188.7 -2.63,283.06 -0.44,11.58 8.24,22.99 19.45,25.81 9.41,1.52 19.15,-2.36 26.11,-8.6 6.56,-6.27 5.38,-16.3 6.05,-24.54 0.69,-51.63 0.89,-103.24 0.96,-154.84 0.25,-6.3 -0.91,-12.91 1.48,-18.88 3.02,-1.3 7.94,-0.49 7.2,3.91 0.32,57.46 -0.49,114.96 0,172.47 -0.39,9.96 3,20.85 11.83,26.43 14.19,10.03 40.05,2.53 40.52,-16.72 0.49,-95.39 -1.37,-190.81 -0.46,-286.18 3.78,25.52 6.56,51.21 10.3,76.76 1.33,7.69 5.07,16.57 13.13,19.18 7.4,1.33 16.79,-1.33 20.06,-8.76 3.24,-6.93 1.52,-14.8 0.78,-22.1 -4.35,-38.67 -8.53,-77.37 -13.74,-115.94 -2.85,-19.65 -16.4,-39.22 -36.44,-44.06 -34.15,-8.04 -70.81,-9.98 -104.37,1.62z"/>
   </g>
   <g>
    <path class="fil3" d="M1097.6 772.62c123.47,-0.98 247.02,-0.2 370.54,-0.42 40,-0.17 78.13,26.68 91.83,64.19 6.46,16.03 6.74,33.56 6.37,50.6 -0.02,114.69 0,229.37 0,344.06 0.24,23.63 -8.28,47.2 -23.68,65.13 -18.27,21.66 -46.17,34.83 -74.52,34.89 -120.5,0.1 -240.99,0.05 -361.49,0.02 -25.65,0.15 -51.07,-10.25 -69.31,-28.25 -19.18,-18.49 -30.22,-44.97 -29.92,-71.59 0,-119.71 0,-239.42 0,-359.13 -0.17,-21.41 6.76,-42.83 19.64,-59.94 16.52,-22.37 42.78,-37.22 70.54,-39.56l0 0zm179.06 68.1c-36.39,5.9 -63.9,44.11 -58.42,80.5 3.32,19.1 17.09,34.79 33.24,44.7 15.2,9.37 34.2,14.73 51.78,9.34 34.03,-10.15 56.57,-48.7 48.14,-83.32 -7.4,-32.6 -41.8,-55.66 -74.74,-51.21l0 0zm-78.82 157.3c-12.69,5.16 -21.34,16.52 -28.67,27.61 -10.84,16.4 -10.35,36.81 -13.6,55.52 -5.78,49.93 -12.29,99.77 -17.46,149.78 -1.15,12.88 0.47,29.55 13.28,36.34 11.5,5.83 30.9,2.75 33.36,-12.07 9.74,-41.28 12.66,-83.84 21.54,-125.24 0.25,51.85 -0.02,103.73 -0.69,155.58 33.96,-37.91 67.24,-76.41 101.2,-114.32 20.31,-0.25 40.59,-0.74 60.88,-1.16 -0.1,-14.85 -0.15,-29.67 0.61,-44.5 1.92,14.8 2.78,29.75 5.48,44.45 17.68,-0.74 35.41,-0.2 53.06,-1.57 -3.89,-30.02 -7.15,-60.11 -11.04,-90.13 -2.07,-15.54 -2.78,-31.84 -10.25,-46 -8.98,-19.2 -25.57,-35.72 -46.74,-40.44 -23.09,-5.17 -46.64,-8.39 -70.24,-9.64 -30.76,0.3 -62.23,3.56 -90.72,15.81z"/>
   </g>
   <g>
    <path class="fil3" d="M1723.39 780.83c13.89,-6.37 29.28,-9 44.53,-8.68 119.73,0.12 239.49,-0.1 359.22,0.09 39.95,0.49 77.57,27.98 90.65,65.65 4.94,13.28 6.17,27.56 5.83,41.63 -0.07,33.95 0,67.88 -0.02,101.83 -44.04,-9.59 -90.99,-12.17 -134.12,3 -19.32,5.75 -33.02,23.38 -39.07,41.97 -4.11,18.78 -5.83,38.01 -8.19,57.09 -3.89,34.57 -8.61,69.06 -12.17,103.68 -0.78,10.28 -1.72,21.71 4.08,30.83 6.46,9.93 21.19,11.31 30.81,5.33 5.58,-3.52 6.02,-10.77 7.57,-16.55 6.74,-34.57 11.19,-69.55 16.67,-104.34 1.77,76.24 -0.66,152.51 -0.89,228.72 -54.85,0.02 -109.68,0.02 -164.5,0.02 -0.2,-60.38 -0.42,-120.74 -0.64,-181.1 -0.02,-15.93 -0.44,-31.87 0.54,-47.75 3.79,29.04 7.52,58.12 11.31,87.19 1.43,10.35 2.46,21.61 9.41,29.97 9.79,13.62 35.36,6.34 36.88,-10.23 1.08,-9.05 -0.17,-18.14 -1.04,-27.14 -5.04,-47.67 -10.79,-95.27 -16.89,-142.82 -2.14,-18.12 -11.19,-35.43 -24.93,-47.4 -14.56,-12.46 -34.44,-14.09 -52.56,-16.96 -34.5,-5.65 -70.49,-3.74 -103.83,7.01 -24.3,6.61 -41.23,30.54 -43.81,54.98 -6.46,46.59 -11.43,93.4 -17.11,140.11 -1.13,12.88 -3.79,27.14 2.97,38.99 7.92,13.6 34.59,12.49 37.13,-4.67 7.92,-36.68 12.61,-74.03 17.9,-111.15 2.39,76.95 -0.56,153.98 -0.64,230.98 -20.6,0.91 -41.94,-1.11 -60.31,-11.16 -31.81,-16.22 -53.33,-50.67 -53.45,-86.44 -0.07,-121.26 -0.07,-242.49 0,-363.72 0.07,-37.76 24.12,-73.88 58.66,-88.95l0 0zm113.98 67.24c-32.77,8.43 -56.57,47.35 -43.76,79.85 10.28,23.09 35.09,39.12 60.29,39.51 36.24,-1.52 63.6,-41.3 54.48,-75.92 -7.16,-30.26 -40.84,-50.57 -71.01,-43.44l0 0zm312.69 1.03c-34.47,6.71 -60.02,47.4 -46.5,80.84 10.4,22.84 34.99,38.7 60.02,39.17 35.04,-1.5 62.01,-38.72 55.32,-72.6 -5.31,-30.91 -38.23,-52.86 -68.84,-47.4z"/>
   </g>
   <g>
    <path class="fil3" d="M2353.06 800.87c18.64,-18.61 44.89,-29.16 71.23,-28.69 109.85,0 219.72,0 329.6,0 18.91,0.42 38.33,-1.75 56.72,3.83 32.7,9.09 59.55,36.22 68.33,69.01 4.94,16.77 3.32,34.4 3.56,51.63 -0.02,112.26 0.05,224.49 -0.05,336.75 -0.05,34.15 -19.65,66.83 -48.85,84.19 -3.93,-21.52 -16.87,-43.69 -38.87,-50.38 -40.22,-10.33 -83.91,-12.52 -123.44,1.82 -12.76,4.08 -21.81,14.83 -28.15,26.16 -6,10.96 -6.22,23.82 -8.19,35.92 -15.83,0 -31.65,0 -47.43,0 -1.33,-19.3 -5.97,-39.53 -20.41,-53.43 -12.52,-13.32 -31.59,-15.22 -48.63,-17.78 -31.99,-5.19 -65.62,-3.34 -96.11,8.04 -22.62,8.88 -33.46,34.08 -34.35,57.04 -37.28,-13.89 -64.37,-51.38 -64.39,-91.33 -0.12,-120.5 -0.02,-240.99 -0.05,-361.49 -0.32,-26.48 10.57,-52.79 29.48,-71.3l0 0zm126.06 347.48c-28.15,5.75 -49.52,36.04 -43.37,64.52 6.29,22.96 29.41,39.07 52.69,40.57 30.73,-0.03 55.05,-32.11 50.15,-61.76 -3.76,-27.37 -32.55,-47.63 -59.47,-43.32l0 0zm243.7 2.68c-29.55,7.99 -50.48,44.8 -35.8,73.24 11.41,20.38 36.41,34.81 59.92,29.48 26.06,-7.01 44.06,-35.55 38.89,-62.11 -4.77,-27.71 -35.89,-48.02 -63.01,-40.61z"/>
   </g>
   <path class="fil3" d="M1845.06 1240.74c0.42,-3.64 -0.89,-9.19 4.23,-9.78 3.24,-2.21 7.4,1.6 6.69,5.14 0.69,31.64 -0.17,63.33 0.07,95 -3.79,-0.02 -7.52,0 -11.24,0.02 0.12,-30.12 0.2,-60.26 0.24,-90.38z"/>
   <path class="fil3" d="M2155 1238.87c-1.03,-5.73 6.27,-9.34 10.03,-4.82 1.11,3.81 0.96,7.84 1.11,11.8 -0.22,25.42 -0.25,50.87 -0.3,76.31 -3.74,1.43 -7.48,2.85 -11.16,4.3 0.1,-29.21 -0.07,-58.42 0.32,-87.6z"/>
  </g>
  <g id="__x0023_828d7eff">
   <path class="fil4" d="M1658.09 137.37c9.61,-21.39 25.37,-41.5 46.89,-51.7 -6.02,4.81 -12.02,9.66 -17.73,14.85 -22.13,20.53 -34.91,50.55 -34.84,80.72 -0.1,118.04 0.02,236.07 -0.05,354.11 -0.47,18.27 2.48,36.81 10.37,53.43 11.58,25.77 33.83,45.29 59.15,57.06 -42.95,-13.89 -72.94,-58.19 -72.77,-102.99 -0.1,-116.44 0.02,-232.88 -0.05,-349.32 -0.64,-19.06 1.13,-38.57 9.02,-56.16z"/>
  </g>
  <g id="__x0023_019a01ff">
   <g>
    <path class="fil5" d="M158.61 249.33c25.15,-5.83 52.52,-2.07 75.01,10.67 25.62,14.43 45.04,39.66 51.93,68.3 7.3,29.19 1.99,61.42 -14.85,86.42 -14.8,22.3 -38.01,39.09 -64.19,45.07 -32.92,8.09 -69.43,-1.3 -94.43,-24.15 -27.09,-23.85 -40.69,-61.83 -34.87,-97.43 5.8,-42.48 39.41,-79.61 81.41,-88.88l0 0zm74.69 49.56c-24.98,24.88 -49.44,50.33 -74.42,75.23 -9.32,-9.54 -18.49,-19.28 -28.15,-28.47 -5.53,-5.46 -15.07,-5.48 -20.92,-0.49 -7.89,5.83 -8.56,18.83 -1.35,25.5 12.98,13.2 25.89,26.48 39,39.56 6,6.24 16.91,6.61 22.89,0.15 28.54,-28.76 56.94,-57.68 85.36,-86.57 6.05,-5.51 7.74,-15.31 2.75,-22.08 -5.26,-8.46 -18.24,-10.35 -25.15,-2.83z"/>
   </g>
  </g>
  <g id="__x0023_fcfcfcff">
   <path class="fil6" d="M233.3 298.9c6.91,-7.52 19.89,-5.63 25.15,2.83 4.99,6.76 3.3,16.57 -2.75,22.08 -28.42,28.89 -56.82,57.8 -85.36,86.57 -5.98,6.47 -16.89,6.1 -22.89,-0.15 -13.11,-13.08 -26.01,-26.36 -39,-39.56 -7.2,-6.66 -6.54,-19.67 1.35,-25.5 5.85,-4.99 15.39,-4.96 20.92,0.49 9.67,9.19 18.83,18.93 28.15,28.47 24.98,-24.91 49.44,-50.35 74.42,-75.23z"/>
   <path class="fil6" d="M140.04 1002.67c-6.86,-8.14 -2.29,-21.95 7.77,-24.85 5.43,-2.24 11.85,-0.35 15.95,3.66 10.23,9.86 19.87,20.31 30.19,30.09 10.8,-10.45 20.8,-21.71 31.99,-31.72 8.09,-6.52 20.85,-1.5 24.04,7.89 1.43,5.21 1.08,11.5 -2.87,15.56 -9.93,10.65 -20.58,20.6 -30.61,31.15 10.08,10.4 20.58,20.41 30.48,30.93 7.87,8.31 2.83,23.65 -8.26,26.06 -8.43,2.66 -15.34,-3.91 -20.48,-9.59 -8.04,-8.28 -16.2,-16.42 -24.31,-24.59 -10.3,9.86 -20.04,20.28 -30.27,30.22 -6.22,6.54 -17.75,5.61 -23.18,-1.43 -5.14,-5.98 -4.97,-15.52 0.69,-21.07 9.71,-10.47 20.16,-20.23 30,-30.56 -10.2,-10.77 -21.12,-20.85 -31.13,-31.77z"/>
  </g>
  <g id="__x0023_f80000ff">
   <g>
    <path class="fil7" d="M150.96 725.64c885.67,-0.39 1771.33,-0.02 2656.96,-0.17 25.03,-0.83 50.35,5.48 71.47,19.06 34.81,21.71 57.26,61.79 57.19,102.89 0,139.38 0.05,278.76 -0.05,418.16 -0.37,39.93 -22.03,78.7 -55.52,100.36 -20.06,13.25 -44.11,20.24 -68.15,20.09 -881.04,0 -1762.08,-0.02 -2643.15,0 -15.66,0.3 -31.59,-0.15 -46.71,-4.7 -50.75,-13.72 -89.03,-63.06 -89.15,-115.75 -0.15,-128.69 -0.03,-257.39 -0.05,-386.07 0.17,-23.73 -1.87,-48.24 6.61,-70.96 15.42,-46.74 61.27,-81.33 110.54,-82.91l0 0zm-2.29 12.44c-27.09,1.82 -53.18,14.26 -71.87,33.93 -19.96,20.65 -31.22,49.3 -30.73,78.01 0.07,138.57 -0.07,277.13 0.07,415.68 0.37,44.7 31.05,86.81 73.12,101.49 17.65,6.86 36.81,6.88 55.44,6.54 878.56,0.02 1757.14,-0.03 2635.7,0.02 19.94,0.42 40.03,-4.33 57.39,-14.21 34.27,-18.95 56.89,-57.09 56.5,-96.33 -0.02,-139.33 0.13,-278.66 -0.07,-417.99 -0.57,-46.67 -34.35,-90.23 -79.17,-102.89 -18.39,-5.95 -37.91,-4.4 -56.92,-4.57 -581.85,0 -1163.7,0 -1745.56,0 -297.96,0.22 -595.94,-0.42 -893.9,0.32z"/>
   </g>
   <g>
    <path class="fil7" d="M431.51 760.33c123.35,-1.03 246.77,-0.12 370.14,-0.44 34.28,-0.69 68.23,15.76 89.13,42.88 15.46,19.59 23.82,44.53 23.63,69.46 -0.02,119.61 0,239.25 -0.02,358.86 0.32,28.42 -10.77,56.7 -30.34,77.32 -20.43,21.81 -49.93,34.94 -79.85,34.99 -121.31,0.02 -242.62,0.02 -363.9,0 -45.17,0.07 -88.04,-30.66 -103.04,-73.15 -4.62,-12.54 -6.81,-25.89 -6.76,-39.21 -0.02,-110.59 -0.02,-221.2 -0.02,-331.81 0.22,-20.43 -1.6,-41.43 5.06,-61.12 12.64,-42.04 52.2,-74.2 95.98,-77.76l0 0zm2.17 12.22c-36.41,2.63 -69.93,27.37 -83.5,61.2 -6.54,15.22 -7.96,31.96 -7.45,48.36 0.07,116.27 0,232.56 0.02,348.83 -0.07,14.41 2.85,28.84 8.85,41.94 15.17,34.22 51.04,58.05 88.56,58.2 121.41,0.07 242.79,0.1 364.19,-0.02 37.42,-0.17 73.22,-23.9 88.41,-58.02 6.39,-13.84 9.2,-29.16 8.95,-44.35 -0.02,-117.96 -0.05,-235.95 0,-353.94 0.25,-14.58 -2.29,-29.28 -8.16,-42.66 -15.07,-35.92 -52.83,-60.65 -91.83,-59.89 -122.69,0.24 -245.39,-0.49 -368.05,0.37z"/>
   </g>
   <g>
    <path class="fil7" d="M1095.24 760.4c55.37,-1.18 110.81,-0.17 166.2,-0.52 68.86,0 137.73,0 206.57,0 32.85,-0.1 65.18,15.59 85.7,41.16 15.74,19.25 24.76,43.91 24.91,68.79 0,121.24 0.02,242.44 -0.03,363.68 -0.1,30.66 -13.94,60.83 -36.76,81.26 -20.04,18.14 -46.86,28.72 -73.91,28.62 -121.33,0 -242.64,0.05 -363.95,-0.03 -46.32,-0.2 -89.91,-32.97 -103.56,-77.13 -4.92,-14.43 -5.73,-29.77 -5.33,-44.89 0.05,-117.22 0,-234.45 0.02,-351.68 0.17,-28.47 12.05,-56.55 32.13,-76.69 17.97,-18.32 42.44,-30.09 67.98,-32.58l0 0zm2.36 12.22c-27.76,2.33 -54.02,17.19 -70.54,39.56 -12.88,17.11 -19.81,38.53 -19.64,59.94 0,119.71 0,239.42 0,359.13 -0.3,26.63 10.74,53.11 29.92,71.59 18.24,18 43.66,28.4 69.31,28.25 120.5,0.02 240.99,0.07 361.49,-0.02 28.35,-0.05 56.25,-13.23 74.52,-34.89 15.39,-17.93 23.92,-41.5 23.68,-65.13 0,-114.69 -0.02,-229.37 0,-344.06 0.37,-17.04 0.1,-34.57 -6.37,-50.6 -13.7,-37.52 -51.83,-64.37 -91.83,-64.19 -123.52,0.22 -247.06,-0.57 -370.54,0.42z"/>
   </g>
   <g>
    <path class="fil7" d="M1724.3 766.6c13.08,-5.04 27.22,-6.88 41.21,-6.71 120.52,0.07 241.07,-0.07 361.59,0.05 46.3,0.37 89.81,33.04 103.43,77.22 6.96,19.94 5.19,41.3 5.36,62.06 -0.02,111.45 0.07,222.9 -0.02,334.32 0,43.1 -27.81,84.3 -67.51,100.87 -13.82,5.95 -28.84,8.98 -43.86,8.98 -119.71,0.05 -239.39,-0.03 -359.1,0.02 -11.24,0.07 -22.6,-0.93 -33.37,-4.23 -44.5,-13.52 -78.67,-56.11 -79.48,-102.99 -0.37,-118.85 0,-237.72 -0.2,-356.59 -0.52,-17.95 1.87,-36.19 9.27,-52.69 11.68,-27.59 35.26,-48.88 62.69,-60.31l0 0zm-0.91 14.24c-34.54,15.07 -58.59,51.19 -58.66,88.95 -0.07,121.23 -0.07,242.47 0,363.72 0.12,35.78 21.64,70.22 53.45,86.44 18.37,10.06 39.71,12.07 60.31,11.16 22.1,-0.02 44.23,0 66.33,0 3.71,-0.02 7.45,-0.05 11.24,-0.02 22.57,0.02 45.14,0 67.73,0.02 54.83,0 109.65,0 164.5,-0.02 22.13,-0.59 44.92,2.33 66.39,-4.62 3.69,-1.45 7.43,-2.88 11.16,-4.3 33.93,-15.56 57.63,-51.11 57.73,-88.58 0.1,-84.08 0,-168.17 0.02,-252.23 0.02,-33.95 -0.05,-67.88 0.02,-101.83 0.35,-14.06 -0.89,-28.35 -5.83,-41.63 -13.08,-37.67 -50.7,-65.15 -90.65,-65.65 -119.73,-0.19 -239.49,0.03 -359.22,-0.09 -15.24,-0.32 -30.63,2.31 -44.53,8.68z"/>
   </g>
   <g>
    <path class="fil7" d="M2415.19 760.11c123.52,-0.47 247.07,-0.13 370.61,-0.17 45.63,0.15 88.71,31.89 103.02,75.13 7.99,21.31 5.68,44.35 5.98,66.63 0,110.66 0.02,221.35 0,332.01 -0.1,38.01 -21.64,74.81 -54.33,94.04 -17.11,10.13 -36.96,15.66 -56.87,15.64 -112.41,0.05 -224.79,0 -337.17,0.02 -17.41,-0.15 -35.13,1.13 -52.07,-3.67 -37.35,-9.39 -68.37,-39.78 -78.73,-76.83 -6.41,-20.65 -3.81,-42.48 -4.33,-63.72 0,-100.8 0,-201.58 0,-302.39 0.13,-19.74 -1.47,-40.07 5.14,-59.08 12.93,-42.85 54.02,-75.26 98.76,-77.62l0 0zm-62.13 40.76c-18.91,18.52 -29.8,44.82 -29.48,71.3 0.02,120.5 -0.07,240.99 0.05,361.49 0.03,39.95 27.12,77.44 64.39,91.33 10.89,3.67 22.27,6.1 33.83,6.1 55.22,0.05 110.44,0 165.66,0.02 15.78,0 31.59,0 47.43,0 47.8,0 95.61,-0.05 143.41,0.03 19.25,0.74 38.5,-4.03 55.24,-13.55 29.21,-17.36 48.8,-50.04 48.85,-84.19 0.1,-112.26 0.02,-224.49 0.05,-336.75 -0.24,-17.24 1.38,-34.87 -3.56,-51.63 -8.78,-32.8 -35.63,-59.92 -68.33,-69.01 -18.39,-5.58 -37.81,-3.42 -56.72,-3.83 -109.87,0 -219.75,0 -329.6,0 -26.33,-0.47 -52.59,10.08 -71.23,28.69z"/>
   </g>
  </g>
  <g id="__x0023_cd0001ff">
   <g>
    <path class="fil8" d="M178.62 932.87c27.64,-4.25 56.82,3.57 78.53,21.22 21.56,17.06 35.6,43.15 38.11,70.51 2.51,25.62 -4.96,52.12 -20.78,72.48 -18.63,24.63 -49.02,40.2 -80.03,39.98 -29.87,0.52 -59.45,-13.5 -78.45,-36.49 -19.89,-23.33 -28.25,-55.93 -22.13,-85.98 7.5,-41.45 42.98,-75.85 84.75,-81.72l0 0zm-38.57 69.8c10.01,10.92 20.93,21 31.13,31.77 -9.83,10.33 -20.28,20.09 -30,30.56 -5.65,5.56 -5.83,15.09 -0.69,21.07 5.43,7.03 16.96,7.96 23.18,1.43 10.23,-9.93 19.96,-20.36 30.27,-30.22 8.11,8.17 16.28,16.3 24.31,24.59 5.14,5.68 12.05,12.24 20.48,9.59 11.09,-2.41 16.13,-17.75 8.26,-26.06 -9.91,-10.52 -20.41,-20.53 -30.48,-30.93 10.03,-10.55 20.68,-20.5 30.61,-31.15 3.96,-4.06 4.3,-10.35 2.87,-15.56 -3.2,-9.39 -15.96,-14.41 -24.04,-7.89 -11.19,10.01 -21.19,21.27 -31.99,31.72 -10.33,-9.79 -19.96,-20.24 -30.19,-30.09 -4.1,-4.01 -10.52,-5.9 -15.95,-3.66 -10.06,2.9 -14.63,16.72 -7.77,24.85z"/>
   </g>
  </g>
 </g>
</svg>
